<svg xmlns="http://www.w3.org/2000/svg" width="148.32" height="26.208" viewBox="0 0 148.32 26.208"><defs><style>.a{fill:#2d81f7;}</style></defs><path class="a" d="M10.944.5A11.281,11.281,0,0,1,4.68-1.152,9.039,9.039,0,0,1,1.044-5.724L5.292-8.208a5.66,5.66,0,0,0,5.8,3.852,5.206,5.206,0,0,0,3.024-.72A2.269,2.269,0,0,0,15.12-7.02a2.273,2.273,0,0,0-1.188-2.052,17.626,17.626,0,0,0-4.248-1.62,18.729,18.729,0,0,1-5.22-2.34,6.051,6.051,0,0,1-2.376-5.184A6.653,6.653,0,0,1,4.5-23.652,8.749,8.749,0,0,1,10.368-25.7a9.84,9.84,0,0,1,5.364,1.476,9.829,9.829,0,0,1,3.636,4.176L15.192-17.64a5.031,5.031,0,0,0-4.824-3.24,3.818,3.818,0,0,0-2.412.7,2.2,2.2,0,0,0-.9,1.818,2.355,2.355,0,0,0,.972,1.944,14.56,14.56,0,0,0,3.816,1.584l1.728.576q.468.144,1.62.612a7.006,7.006,0,0,1,1.584.756,6.332,6.332,0,0,1,2.376,2.232,6.634,6.634,0,0,1,.936,3.564,6.736,6.736,0,0,1-2.556,5.544A10.2,10.2,0,0,1,10.944.5Zm18.288-3.1a2.946,2.946,0,0,1-.9,2.16,2.946,2.946,0,0,1-2.16.9,2.946,2.946,0,0,1-2.16-.9,2.946,2.946,0,0,1-.9-2.16,2.946,2.946,0,0,1,.9-2.16,2.946,2.946,0,0,1,2.16-.9,2.946,2.946,0,0,1,2.16.9A2.946,2.946,0,0,1,29.232-2.592Zm19.512-12.6V-25.2h4.932V0H48.744V-10.44h-9.36V0H34.416V-25.2h4.968v10.008ZM64.98-2.592a2.946,2.946,0,0,1-.9,2.16,2.946,2.946,0,0,1-2.16.9,2.946,2.946,0,0,1-2.16-.9,2.946,2.946,0,0,1-.9-2.16,2.946,2.946,0,0,1,.9-2.16,2.946,2.946,0,0,1,2.16-.9,2.946,2.946,0,0,1,2.16.9A2.946,2.946,0,0,1,64.98-2.592ZM75.132-10.4v5.652h10.62V0H70.164V-25.2H85.572v4.752H75.132v5.364h9.54v4.68ZM95.868-2.592a2.946,2.946,0,0,1-.9,2.16,2.946,2.946,0,0,1-2.16.9,2.946,2.946,0,0,1-2.16-.9,2.946,2.946,0,0,1-.9-2.16,2.946,2.946,0,0,1,.9-2.16,2.946,2.946,0,0,1,2.16-.9,2.946,2.946,0,0,1,2.16.9A2.946,2.946,0,0,1,95.868-2.592ZM106.02-25.2V-4.752h9.612V0h-14.58V-25.2ZM126.18-2.592a2.946,2.946,0,0,1-.9,2.16,2.946,2.946,0,0,1-2.16.9,2.946,2.946,0,0,1-2.16-.9,2.946,2.946,0,0,1-.9-2.16,2.946,2.946,0,0,1,.9-2.16,2.946,2.946,0,0,1,2.16-.9,2.946,2.946,0,0,1,2.16.9A2.946,2.946,0,0,1,126.18-2.592ZM131.364-25.2h9.4a8.458,8.458,0,0,1,6.12,2.448,8.113,8.113,0,0,1,2.484,6.012,8.113,8.113,0,0,1-2.484,6.012,8.458,8.458,0,0,1-6.12,2.448h-4.428V0h-4.968Zm4.968,12.276h4.428a3.473,3.473,0,0,0,2.628-1.1,3.793,3.793,0,0,0,1.044-2.718,3.776,3.776,0,0,0-1.044-2.736,3.5,3.5,0,0,0-2.628-1.08h-4.428Z" transform="translate(-1.044 25.704)"/></svg>